# xmcd
#
# Track frame offsets:
#  150
#  22085
#  34022
#  46265
#  56975
#  68252
#  80045
#  94057
#  107842
#  120647
#  132177
#  142070
#  154367
#  165872
#  178595
#  189530
#  201450
#
# Disc length: 2843 seconds
#
# Revision: 0
# Processed by: cddbd v1.5.1PL2 Copyright (c) Steve Scherf et al.
# Submitted via: Collectorz.com_Music_Collector 6.9
#
DISCID=f00b1911
DTITLE=The Johnny Otis Band - Too Late To Holler
DYEAR=1994
DGENRE=Blues - General R&B - West Coast Blues
TTITLE0=RightNow Baby
TTITLE1=Love And Gold
TTITLE2=Poor Man Blues
TTITLE3=I'll Laugh While You Cry
TTITLE4=Hold It
TTITLE5=If I Had One
TTITLE6=Korea Blues
TTITLE7=Loving Baby Blues
TTITLE8=That's Your Last Boogie (alternative take)
TTITLE9=If I'm Wrong
TTITLE10=So Help Me
TTITLE11=Ice Man (instrumental)
TTITLE12=Chicken Leg Chick
TTITLE13=Don't Trust A Woman
TTITLE14=Country Gal
TTITLE15=Be Bop Baby Blues (alternate take)
TTITLE16=Crazy 'Bout Your Cooking (alternative take)
EXTD=
EXTT0=
EXTT1=
EXTT2=
EXTT3=
EXTT4=
EXTT5=
EXTT6=
EXTT7=
EXTT8=
EXTT9=
EXTT10=
EXTT11=
EXTT12=
EXTT13=
EXTT14=
EXTT15=
EXTT16=
PLAYORDER=
